<?xml version="1.0" encoding="utf-8"?>
<!-- Generator: Adobe Illustrator 25.2.3, SVG Export Plug-In . SVG Version: 6.00 Build 0)  -->
<svg version="1.1" id="Layer_1" xmlns="http://www.w3.org/2000/svg" xmlns:xlink="http://www.w3.org/1999/xlink" x="0px" y="0px"
	 viewBox="0 0 64 64" style="enable-background:new 0 0 64 64;" xml:space="preserve">
<style type="text/css">
	.st0{fill:url(#SVGID_1_);}
</style>
<linearGradient id="SVGID_1_" gradientUnits="userSpaceOnUse" x1="-699.233" y1="434.3603" x2="-698.3737" y2="434.3603" gradientTransform="matrix(56.72 23.11 26.45 -49.56 28170.584 37704.8477)">
	<stop  offset="0" style="stop-color:#5106FF"/>
	<stop  offset="1" style="stop-color:#61CBF2"/>
</linearGradient>
<path class="st0" d="M13.5,20.5c-1.9,2.9-3,6.4-3,10l-0.7,0.3C10.1,27.1,11.4,23.5,13.5,20.5z M58.9,36.6L58.9,36.6
	c0-1.9-1.6-3.7-4.2-5.2C57.2,53.8,25.5,64.6,14,45.3v-0.3C-5,38.8,10.7,28,20.9,28c-0.1,0.3-0.2,0.8-0.2,1.1c-4.2,1-7.4,2.6-9.5,4.3
	c0.7,14.8,16.6,13.9,28.9,13l0,0c-0.1-2,5.9-2.5,7.7-1.1c3.4-4.3,4.9-9.9,3.9-15.1c-2.7-1-5.6-1.7-8.4-2
	c5.6,19.3-26.1,21.3-22.6,1.1l0,0c0.4,5.5,9.2,5.2,8.9-0.4c0.2-3.5-4.3-5.9-7.1-3.6c4.9-7.3,16.6-6.2,20.2,1.8l0,0
	c3,0.4,5.9,1.2,8.8,2.4c-1.6-7.2-7-13.1-13.8-15.6c-1,1.8-3.3,2.4-4.9,1.2l0,0c-5.4-3.9,4-9.9,5.4-3.4C47.3,14,53.9,21.7,54.9,31
	C57.4,32.5,58.9,34.4,58.9,36.6z M11.8,42.6c-1.2-2.7-1.9-5.5-2-8.5C6.9,36.9,8,40.4,11.8,42.6z M45.7,47.9
	c-8.6-0.6-19.1,1.5-27.2-1.1l0,0l0,0C26.3,53.6,38.3,54,45.7,47.9z"/>
</svg>
