<?xml version="1.0" standalone="no"?>
<!DOCTYPE svg PUBLIC "-//W3C//DTD SVG 20010904//EN"
 "http://www.w3.org/TR/2001/REC-SVG-20010904/DTD/svg10.dtd">
<svg version="1.0" xmlns="http://www.w3.org/2000/svg"
 width="1024.000000pt" height="1024.000000pt" viewBox="0 0 1024.000000 1024.000000"
 preserveAspectRatio="xMidYMid meet">
<metadata>
Created by potrace 1.14, written by Peter Selinger 2001-2017
</metadata>
<g transform="translate(0.000000,1024.000000) scale(0.100000,-0.100000)"
fill="#000000" stroke="none">
<path d="M5475 8830 c-132 -35 -222 -85 -319 -178 -125 -121 -182 -250 -174
-395 9 -145 75 -265 207 -374 116 -95 218 -133 364 -133 111 0 211 31 309 97
60 39 151 134 165 170 7 19 20 16 119 -23 797 -320 1483 -963 1848 -1736 98
-206 189 -466 240 -680 l6 -27 -57 24 c-311 125 -810 263 -1192 329 -78 13
-144 26 -145 28 -2 1 -26 48 -55 103 -323 622 -1050 1008 -1798 954 -464 -33
-873 -216 -1181 -528 -80 -81 -207 -239 -199 -247 2 -3 32 14 66 37 96 64 185
91 317 97 89 3 126 0 191 -16 270 -68 486 -282 539 -532 24 -115 15 -320 -19
-425 -51 -155 -159 -279 -310 -354 -125 -63 -188 -76 -357 -76 -124 0 -156 3
-220 23 -261 82 -428 262 -479 520 -20 97 -22 94 -41 -48 -35 -248 -30 -554
11 -768 144 -750 712 -1266 1517 -1376 142 -20 440 -21 582 -2 704 95 1280
506 1507 1076 143 360 163 788 58 1228 -14 59 -28 115 -31 124 -6 20 -21 21
253 -23 315 -50 581 -115 899 -220 l181 -59 7 -48 c37 -250 47 -533 26 -743
-38 -380 -149 -753 -332 -1112 -74 -144 -233 -400 -301 -482 l-25 -30 -38 22
c-59 32 -188 69 -291 83 -131 18 -431 8 -543 -18 -221 -52 -350 -135 -367
-236 -3 -20 -11 -36 -17 -36 -6 0 -139 -9 -296 -19 -1191 -82 -1942 -56 -2560
86 -804 184 -1324 571 -1576 1170 -88 210 -155 496 -170 735 l-7 106 78 57
c308 228 791 445 1295 583 l145 40 16 73 c8 41 19 84 23 97 l8 23 -109 -6
c-807 -48 -1664 -409 -2128 -897 -206 -217 -305 -425 -305 -643 0 -288 165
-530 527 -771 182 -121 542 -287 820 -379 78 -25 83 -28 83 -55 0 -34 158
-275 283 -430 542 -674 1300 -1083 2192 -1182 152 -17 613 -17 760 0 477 55
924 184 1340 387 389 191 712 421 1015 724 525 525 836 1151 935 1881 21 150
30 523 17 670 -6 63 -9 117 -7 119 2 2 38 -18 80 -44 248 -154 409 -314 503
-500 35 -71 52 -127 62 -210 l7 -60 2 48 c1 62 -24 171 -60 260 -79 192 -292
419 -523 558 -31 19 -58 43 -60 54 -3 11 -14 84 -26 163 -39 264 -128 577
-237 836 -404 958 -1203 1700 -2178 2021 -88 29 -175 56 -194 61 -31 8 -35 15
-65 100 -40 116 -87 193 -154 254 -119 110 -284 146 -457 100z m-3896 -4285
c32 -340 132 -729 265 -1029 15 -33 24 -61 22 -64 -3 -2 -44 21 -91 53 -179
119 -360 324 -415 472 -43 116 -53 171 -48 288 4 95 10 123 39 200 38 99 86
177 157 257 l47 52 7 -55 c3 -30 11 -108 17 -174z m1555 -1835 c509 -136 1122
-185 1996 -161 239 7 530 16 645 21 413 19 994 28 1248 21 142 -5 260 -11 263
-14 8 -8 -143 -120 -274 -204 -672 -429 -1553 -578 -2417 -407 -478 95 -959
303 -1362 592 -108 76 -255 198 -229 188 11 -3 69 -20 130 -36z"/>
<path d="M2077 6853 c-234 -371 -391 -775 -471 -1213 -27 -147 -49 -320 -43
-327 3 -2 30 8 61 24 l56 27 0 76 c0 160 43 462 91 640 76 281 189 547 331
783 33 55 57 101 55 103 -3 3 -38 -48 -80 -113z"/>
</g>
</svg>
